<?xml version="1.0" standalone="no"?>
<!DOCTYPE svg PUBLIC "-//W3C//DTD SVG 20010904//EN"
 "http://www.w3.org/TR/2001/REC-SVG-20010904/DTD/svg10.dtd">
<svg version="1.0" xmlns="http://www.w3.org/2000/svg"
 width="594.000000pt" height="594.000000pt" viewBox="0 0 594.000000 594.000000"
 preserveAspectRatio="xMidYMid meet">
<metadata>
Created by potrace 1.11, written by Peter Selinger 2001-2013
</metadata>
<g transform="translate(0.000000,594.000000) scale(0.100000,-0.100000)"
fill="#000000" stroke="none">
<path d="M1298 5915 c-2 -2 -23 -6 -48 -9 -61 -8 -80 -12 -112 -25 -16 -6 -28
-8 -28 -6 0 8 -144 -47 -205 -78 -58 -30 -135 -76 -145 -87 -3 -3 -25 -21 -50
-40 -124 -96 -244 -256 -320 -425 -31 -69 -84 -225 -94 -280 -4 -16 -9 -41
-12 -55 -12 -61 -25 -140 -32 -205 -14 -135 -6 -529 13 -620 2 -11 7 -38 10
-60 9 -70 15 -109 26 -155 5 -25 12 -55 14 -67 3 -13 7 -32 10 -43 3 -11 7
-29 10 -41 2 -11 7 -29 10 -39 3 -10 8 -27 10 -37 8 -37 56 -196 65 -211 4
-10 14 -37 21 -62 7 -25 16 -49 19 -55 4 -5 15 -32 25 -60 17 -48 27 -73 76
-182 36 -82 133 -278 139 -283 4 -3 9 -13 13 -23 14 -37 183 -316 271 -447
116 -172 340 -472 401 -536 5 -6 30 -35 55 -64 25 -29 50 -58 55 -64 6 -6 28
-31 49 -56 206 -236 559 -587 806 -800 14 -12 36 -31 50 -43 14 -12 52 -44 85
-72 33 -27 62 -53 65 -56 3 -4 26 -22 51 -41 43 -34 61 -47 116 -93 13 -11 25
-27 27 -35 13 -67 116 -392 138 -432 11 -23 19 -22 44 0 10 10 53 41 94 70 91
62 305 228 388 300 11 10 41 35 67 57 26 22 57 49 69 60 12 11 55 49 96 85
209 185 523 497 690 685 151 171 161 183 263 310 49 60 96 119 106 130 38 46
202 278 266 375 37 58 78 121 91 140 35 53 146 249 179 316 17 32 33 61 38 62
4 2 7 7 7 12 0 5 23 57 51 117 28 59 69 153 90 208 22 55 44 109 48 120 11 25
15 35 58 170 19 61 36 117 38 125 2 8 11 44 20 80 21 79 25 97 31 135 3 17 10
48 15 70 5 22 12 64 14 93 3 30 7 57 9 60 7 12 19 154 20 234 1 43 3 78 6 78
13 0 -8 372 -25 440 -4 14 -7 32 -7 40 0 8 -5 33 -10 55 -6 22 -12 49 -14 60
-18 98 -94 293 -147 380 -26 42 -91 139 -106 158 -58 74 -260 247 -287 247 -4
0 -15 6 -23 14 -44 37 -278 117 -387 132 -113 15 -247 19 -327 10 -139 -17
-138 -17 -202 -30 -201 -42 -470 -155 -655 -276 -148 -97 -239 -171 -363 -293
-33 -32 -63 -55 -66 -50 -4 4 -39 49 -77 98 -61 80 -238 266 -319 335 -57 48
-180 137 -264 189 -76 48 -252 141 -265 141 -4 0 -25 8 -49 19 -90 40 -306
105 -316 96 -2 -3 -10 0 -18 6 -7 6 -13 9 -13 7 0 -3 -32 0 -71 7 -61 11 -362
19 -371 10z m358 -250 c16 -3 66 -15 110 -25 43 -11 89 -23 100 -25 59 -13
319 -128 359 -158 6 -4 52 -34 103 -67 99 -64 106 -70 153 -112 16 -16 32 -28
35 -28 12 0 164 -154 231 -235 102 -123 103 -124 103 -134 0 -5 7 -15 16 -22
37 -31 36 -57 -5 -117 -96 -143 -186 -313 -244 -462 -28 -70 -82 -249 -90
-296 -3 -16 -10 -54 -16 -84 -7 -30 -14 -73 -16 -95 -3 -22 -7 -49 -9 -60 -2
-12 -7 -48 -11 -80 -4 -33 -9 -71 -11 -85 -2 -14 -6 -54 -9 -90 -3 -36 -8 -83
-10 -105 -20 -203 -27 -801 -12 -1040 11 -172 17 -246 22 -280 4 -27 13 -125
20 -215 2 -19 4 -37 5 -40 1 -3 2 -8 2 -11 -1 -3 3 -35 8 -70 5 -35 12 -84 15
-109 5 -45 21 -148 31 -205 3 -16 7 -43 10 -60 2 -16 6 -41 9 -55 3 -14 15
-77 26 -140 12 -63 23 -124 25 -135 2 -11 11 -49 18 -85 8 -35 14 -65 13 -66
-1 -2 -18 12 -38 29 -20 18 -60 52 -89 77 -29 25 -65 56 -80 70 -15 14 -62 57
-104 95 -111 101 -334 323 -456 455 -58 62 -116 125 -130 139 -14 15 -59 67
-100 117 -41 49 -79 94 -85 100 -19 22 -41 49 -125 159 -47 61 -89 115 -95
122 -5 7 -16 19 -22 27 -7 8 -13 18 -13 22 0 4 -16 26 -35 50 -19 23 -35 46
-35 50 0 4 -8 17 -18 28 -34 37 -190 290 -270 437 -141 257 -225 448 -309 699
-19 58 -36 112 -38 120 -2 8 -11 44 -20 80 -10 36 -19 74 -21 85 -2 11 -11 52
-19 90 -8 39 -17 90 -20 115 -3 25 -8 54 -10 66 -22 101 -27 591 -7 628 3 5 6
23 7 40 1 17 5 45 8 61 4 17 9 41 12 54 36 193 139 397 267 532 103 108 282
206 427 234 9 2 16 4 16 5 0 1 20 4 45 7 25 2 47 6 49 9 6 6 288 -3 327 -11z
m2896 -249 c385 -28 662 -244 797 -619 23 -62 73 -261 69 -274 -1 -4 2 -27 6
-51 7 -37 13 -120 18 -254 1 -21 -1 -40 -4 -44 -4 -3 -2 -18 2 -34 4 -16 6
-31 3 -33 -2 -3 -6 -38 -8 -78 -4 -77 -15 -190 -20 -199 -2 -3 -6 -30 -10 -60
-3 -30 -11 -75 -17 -100 -5 -25 -11 -54 -13 -65 -17 -121 -119 -427 -230 -690
-34 -80 -144 -293 -215 -415 -63 -108 -199 -325 -223 -355 -4 -5 -45 -62 -90
-125 -80 -111 -215 -287 -247 -321 -8 -8 -24 -27 -35 -41 -135 -172 -486 -539
-740 -774 -99 -91 -132 -121 -240 -215 -28 -25 -132 -111 -206 -171 -35 -29
-59 -37 -42 -15 6 6 15 30 21 52 6 22 20 72 30 110 21 71 81 298 87 325 2 8
16 67 30 130 15 63 28 126 31 140 3 14 13 68 24 120 11 52 22 110 25 128 3 17
8 47 11 65 3 17 8 41 9 52 8 53 16 103 20 125 5 26 11 66 20 135 3 22 7 51 10
65 3 25 12 91 20 165 2 22 6 58 9 80 3 22 8 76 11 120 4 44 8 91 10 105 2 14
7 79 11 145 28 486 15 974 -38 1370 -5 44 -12 95 -14 113 -3 29 -19 122 -39
221 -21 108 -100 329 -165 465 -38 78 -45 61 83 188 288 287 721 496 1059 513
44 2 83 6 86 9 2 3 8 4 11 2 4 -3 41 -7 83 -10z m-1492 -907 c62 -146 117
-354 135 -514 3 -27 8 -57 10 -65 2 -8 7 -44 10 -80 4 -36 8 -78 10 -95 14
-113 25 -276 30 -435 3 -80 5 -147 6 -150 0 -3 0 -68 0 -145 -2 -232 -14 -485
-36 -720 -11 -125 -17 -178 -20 -196 -2 -11 -7 -47 -10 -80 -4 -33 -8 -68 -10
-78 -2 -10 -6 -42 -10 -71 -4 -29 -9 -62 -11 -74 -2 -12 -7 -39 -10 -61 -6
-53 -62 -355 -79 -435 -3 -14 -10 -43 -14 -65 -31 -145 -46 -208 -83 -350 -22
-88 -42 -162 -44 -164 -8 -9 -16 9 -30 70 -9 35 -17 71 -19 79 -13 52 -64 301
-69 332 -3 21 -10 57 -15 80 -5 24 -12 61 -15 83 -3 22 -7 51 -10 65 -12 62
-49 326 -61 435 -4 33 -8 74 -10 90 -2 17 -7 66 -10 110 -4 44 -8 96 -10 115
-26 236 -25 903 0 1185 6 67 15 153 21 190 2 17 6 53 8 81 2 29 5 56 8 60 2 5
5 25 7 44 8 99 87 406 113 438 6 6 8 12 5 12 -4 0 8 30 24 68 17 37 35 76 40
87 5 11 25 47 44 80 19 33 38 68 41 78 4 9 10 17 15 17 5 0 9 7 9 15 0 30 18
14 40 -36z"/>
</g>
</svg>
